HIERARCHY
ROOT Hip
{
    OFFSET 0.0 0.0 0.0
    CHANNELS 6 Xposition Yposition Zposition Zrotation Xrotation Yrotation
    JOINT RightHip
    {
        OFFSET -11.743134170626057 0.0 0.0
        CHANNELS 3 Zrotation Xrotation Yrotation
        JOINT RightKnee
        {
            OFFSET 0.0 0.0 -41.105171352274766
            CHANNELS 3 Zrotation Xrotation Yrotation
            JOINT RightAnkle
            {
                OFFSET 0.0 0.0 -40.82174991574395
                CHANNELS 3 Zrotation Xrotation Yrotation
                End Site
                {
                    OFFSET 0.0 -16.32869996629758 0.0
                }
            }
        }
    }
    JOINT LeftHip
    {
        OFFSET 11.743134170626057 0.0 0.0
        CHANNELS 3 Zrotation Xrotation Yrotation
        JOINT LeftKnee
        {
            OFFSET 0.0 0.0 -41.105171352274766
            CHANNELS 3 Zrotation Xrotation Yrotation
            JOINT LeftAnkle
            {
                OFFSET 0.0 0.0 -40.82174991574395
                CHANNELS 3 Zrotation Xrotation Yrotation
                End Site
                {
                    OFFSET 0.0 -16.32869996629758 0.0
                }
            }
        }
    }
    JOINT Spine
    {
        OFFSET 0.0 0.0 21.48519989247739
        CHANNELS 3 Zrotation Xrotation Yrotation
        JOINT Thorax
        {
            OFFSET 0.0 0.0 21.56601189044
            CHANNELS 3 Zrotation Xrotation Yrotation
            JOINT Neck
            {
                OFFSET 0.0 0.0 4.151720088021989
                CHANNELS 3 Zrotation Xrotation Yrotation
                JOINT Head
                {
                    OFFSET 0.0 0.0 16.520813322245417
                    CHANNELS 3 Zrotation Xrotation Yrotation
                    End Site
                    {
                        OFFSET -6.608325328898167 0.0 0.0
                    }
                }
            }
            JOINT LeftShoulder
            {
                OFFSET 13.582456303719063 0.0 0.0
                CHANNELS 3 Zrotation Xrotation Yrotation
                JOINT LeftElbow
                {
                    OFFSET 26.765532041455412 0.0 0.0
                    CHANNELS 3 Zrotation Xrotation Yrotation
                    JOINT LeftWrist
                    {
                        OFFSET 22.72470599228951 0.0 0.0
                        CHANNELS 3 Zrotation Xrotation Yrotation
                        End Site
                        {
                            OFFSET 9.089882396915804 0.0 0.0
                        }
                    }
                }
            }
            JOINT RightShoulder
            {
                OFFSET -13.582456303719063 0.0 0.0
                CHANNELS 3 Zrotation Xrotation Yrotation
                JOINT RightElbow
                {
                    OFFSET -26.765532041455412 0.0 0.0
                    CHANNELS 3 Zrotation Xrotation Yrotation
                    JOINT RightWrist
                    {
                        OFFSET -22.72470599228951 0.0 0.0
                        CHANNELS 3 Zrotation Xrotation Yrotation
                        End Site
                        {
                            OFFSET -9.089882396915804 0.0 0.0
                        }
                    }
                }
            }
            JOINT Nose
            {
                OFFSET 0.0 0.0 15.532346910793125
                CHANNELS 3 Zrotation Xrotation Yrotation
                End Site
                {
                    OFFSET -6.212938764317251 0.0 0.0
                }
            }
        }
    }
}
MOTION
Frames: 6
Frame Time: 0.03333333333333333
1.4223234235759021 68.31014843819729 43.84344284857312 1.1502103745761483 -11.342055736200692 34.4979328992048 4.871513368384966 6.330639859146093 -7.18997848864611 12.070742341138285 21.558069493747738 -6.408363787766948 0.0 0.0 1.987846675914698e-16 10.576146431365716 21.856752863864866 1.753525705325458 8.653149340913455 10.99558986856472 -3.9495764954249566 1.5902773407317584e-15 -1.6552148617688095e-32 -1.1927080055488188e-15 -1.1981808513744595e-15 -0.10829028796943012 -5.7907383232585456e-15 0.4542872930572466 0.2772288058189111 -5.571671721432383 152.30702889298004 27.076485537993563 2.022624487839488 0.0 0.0 0.0 -89.19724307582939 34.072568658341694 -34.9715371491615 4.573557098543986e-15 -4.4211183871816736e-15 -88.05812700150987 1.5902773407317584e-15 0.0 0.0 56.305034179908006 9.534535391837842 36.53269554320077 -7.861721618880069e-16 1.3471029611870923e-14 96.68001085739235 -3.975693351829396e-16 0.0 0.0 -7.349326404468282e-33 1.5405811738338909e-15 5.466578358765419e-16
1.422313944133961 68.30974607519566 43.84352745858053 1.150674613701122 -11.344210914012777 34.49825158608754 4.869072856821153 6.327646224841459 -7.189533943052792 12.065808045774714 21.549989502337887 -6.403026192471657 0.0 0.0 3.975693351829396e-16 10.578370552104486 21.860399084908245 1.7519710976111444 8.65092560041714 10.992674707538093 -3.948684193537813 0.0 0.0 3.975693351829396e-16 -3.958560081565263e-16 -0.10399446603243999 1.888095871284416e-15 0.4599245241221119 0.2795224920253674 -5.622522786588459 152.32356729890134 27.096632825328875 1.974630209803796 0.0 0.0 3.1805546814635168e-15 -89.25342875156427 33.97223711609839 -34.91459002401485 1.191637053901975e-15 -7.861587094403372e-15 -89.0219620885314 -1.5902773407317584e-15 0.0 0.0 56.2779983934941 9.616948385701678 36.55820915658648 -2.641509404522902e-15 6.6031862365614474e-15 96.73643561269209 2.3854160110976376e-15 0.0 0.0 0.0 0.0 -9.93923337957349e-17
1.422314493666827 68.30976940058706 43.84352255365257 1.1532858969599946 -11.348134057565268 34.51444923543433 4.867850141759843 6.3272938343649185 -7.177497456681748 12.06412214325555 21.523080971785056 -6.3950723956586435 -7.951386703658792e-16 2.6207568644672815e-32 -3.776908684237926e-15 10.606615777889713 21.88836894178691 1.727511020416834 8.632841155145208 10.970866143658819 -3.942078054225204 0.0 0.0 -2.5842006786891076e-15 -3.49030441839647e-19 -0.02515029166387433 -1.5902774556383539e-15 0.47033080773738856 0.2896158413462545 -5.740563429342083 152.17036368494053 27.463184997204472 2.0824577449517148 0.0 0.0 -3.1805546814635168e-15 -88.92552846976842 33.927720289632674 -36.63038719755438 -1.8945410223992085e-14 -1.4839417580435294e-14 -88.66947444095773 -3.1805546814635168e-15 0.0 0.0 56.22325651252691 9.731807041082629 36.677465387808525 2.1104823910030255e-15 2.3794520711806e-15 96.85641748773563 -3.975693351829396e-16 0.0 0.0 0.0 0.0 -6.212020862233431e-16
1.4221619982964717 68.30329660447401 43.84488367116305 1.0515335064970905 -11.428051391840468 34.16285335159722 4.891118988318101 6.270734134511859 -7.241331754721973 11.974902803076422 21.711407947097374 -6.428388914311865 -7.951386703658792e-16 -1.6552148617688095e-32 2.3854160110976376e-15 10.37282914127418 21.65117620707706 1.921408158692643 9.030766174080764 11.579044417582297 -4.197505425702478 0.0 1.9878466759146977e-16 0.0 7.958702186823931e-16 -0.01703812831651588 4.9200389118086786e-15 0.5785662719889499 0.27682713393807756 -5.484036665677307 152.24308988799365 27.39156180112588 1.9653255344472498 0.0 0.0 0.0 -88.79438846465445 33.91494589711485 -37.069164500251205 -1.8181327667932087e-14 8.60676754086381e-15 -87.53424132757374 1.5902773407317584e-15 0.0 0.0 56.23305993274006 9.764607580790523 36.7313766460411 4.490165820314293e-15 2.6507936479525695e-16 96.75713189785337 -1.987846675914698e-15 0.0 0.0 1.3103784322336408e-32 1.5902773407317584e-15 -9.442271710594815e-16
1.4435408875377582 69.21074180008924 43.65406357981673 1.1577733347033985 -11.41292140060259 33.808079705035475 4.361974890395933 5.878739564879033 -7.153332827419077 12.00168796433403 21.944283601756986 -6.293274153842297 0.0 0.0 7.951386703658792e-16 9.599069241492886 21.07233298255097 2.306545616537053 9.281648979355607 11.94767342309059 -4.225308054950691 0.0 0.0 7.951386703658792e-16 4.6515746967854345e-19 -0.033518122856354395 1.5902775448201527e-15 0.5821737355966021 0.23799800736012663 -4.909456505655844 152.65909785274778 26.157052351099086 0.8875585409461791 0.0 0.0 0.0 -88.8003661518121 33.923736788319715 -36.237460878925006 1.1036768160840406e-14 1.144936463775815e-14 -87.8976034297329 -3.1805546814635168e-15 0.0 0.0 57.48264523123551 8.942731896348104 36.82977323951173 -1.3450648856209402e-14 -1.0801624039854333e-15 99.18263796339295 2.1866313435061676e-15 0.0 0.0 0.0 0.0 -1.341796506242421e-15
1.4424030797384053 69.16244657719886 43.66421923316975 1.230788738637695 -11.49383846454158 34.64936901989093 4.3387343369662394 5.812096471257125 -6.388530555408724 12.488086785615145 21.347143346342367 -6.353818615100195 0.0 0.0 -3.975693351829396e-16 9.624440801951224 20.69699438044822 1.7878103947453343 9.279346556934621 11.821918751625155 -4.130915940105641 0.0 0.0 -8.74652537402467e-15 7.963972688131029e-16 0.04533904793840471 -3.1808700312478178e-15 -0.13495104262275082 0.2794410946709093 -4.842916534468927 153.93259550092725 24.05549197442865 1.2352629265498627 0.0 0.0 -3.1805546814635168e-15 -88.01562702665946 34.7977485066666 -33.96480766602309 -3.385670834358773e-15 1.0872640450216019e-15 -88.73759072558944 3.1805546814635168e-15 0.0 0.0 60.06556214415531 8.46320090606656 37.44180549871486 -1.4769149634056698e-14 1.2084934010200657e-14 101.41614699119178 -5.963540027744094e-16 0.0 0.0 -1.1034765745125397e-32 -1.5902773407317582e-15 -7.951386703658791e-16
